<svg width="210" height="71" viewBox="0 0 210 71" fill="none" xmlns="http://www.w3.org/2000/svg">
<path d="M30.2253 6.57882C28.4311 5.70908 27.1164 6.66539 27.6914 8.40883C27.8922 9.01685 28.2894 9.6036 28.7846 10.085C29.2732 10.5728 29.8688 10.9641 30.4865 11.162C32.2562 11.7285 33.2264 10.4333 32.3435 8.66559C32.1246 8.22627 31.8122 7.81465 31.4491 7.45993C31.0891 7.10224 30.6713 6.79501 30.2253 6.57882V6.57882Z" fill="url(#paint0_linear_6628_4299)"/>
<path d="M12.8991 11.1242C13.6493 13.9139 15.1418 14.4789 17.6833 13.3589C17.735 13.3361 17.7848 13.3168 17.8335 13.299C17.8325 13.297 17.831 13.2945 17.83 13.2926C18.8107 12.8547 19.789 12.5064 20.8686 12.2957C21.2101 12.2427 21.5782 12.3451 21.7942 12.6504C21.8012 12.6603 21.8082 12.6697 21.8157 12.6791C22.3636 13.4721 23.0195 14.2553 23.7893 15.0073C28.56 19.7443 34.5651 20.1787 36.5858 16.8897C37.5957 15.0627 35.4363 13.7269 34.4952 14.6244C32.5453 16.3193 28.902 15.1102 26.2811 12.5524C25.6142 11.8895 25.0327 11.1519 24.5672 10.3885C24.5672 10.3885 24.5662 10.3885 24.5657 10.3885C23.2364 8.09887 21.2875 8.62725 20.021 8.90628C20.021 8.90628 20.021 8.90677 20.021 8.90726C18.9679 9.12593 18.0002 9.44207 17.0772 9.81608C17.0737 9.81757 17.0712 9.81757 17.0677 9.81905C16.6217 10.0095 16.3962 9.77403 16.2933 9.36291C14.7049 2.30706 20.2841 -1.46823 27.6285 1.77424C17.4312 -3.06027 10.6955 2.62419 12.8986 11.1232L12.8991 11.1242Z" fill="url(#paint1_linear_6628_4299)"/>
<path d="M19.7889 16.148C18.1608 14.597 15.3587 16.5146 17.1028 18.8794C19.2551 21.1265 22.0181 18.6142 20.1339 16.5547C20.1309 16.5502 20.1274 16.5462 20.1249 16.5423C20.0114 16.4122 19.8989 16.2811 19.7894 16.148H19.7889Z" fill="url(#paint2_linear_6628_4299)"/>
<path d="M19.8901 5.18204C19.4471 7.45285 22.9609 7.37518 23.5384 5.61443C23.5474 5.58525 23.5565 5.55655 23.566 5.52736C23.567 5.5234 23.5685 5.51945 23.57 5.51549C23.57 5.51549 23.5705 5.51549 23.571 5.51549C23.6936 5.15532 23.8758 4.8199 24.1264 4.5191C25.8655 2.4348 29.8538 3.45741 32.6856 6.24027C34.285 7.81994 35.3109 9.76424 35.5163 11.4651C35.5269 11.48 35.551 11.9035 35.5515 11.9242C35.8051 13.2368 37.3136 14.0352 37.1876 12.9755C36.7808 10.2451 35.1573 7.69181 33.1767 5.75642C31.181 3.77503 28.6516 2.26165 26.0272 1.83123C22.5777 1.26476 20.4871 2.77963 19.8901 5.18204V5.18204Z" fill="url(#paint3_linear_6628_4299)"/>
<path d="M29.1055 22.2952C27.5532 21.9044 26.0221 21.2216 24.5824 20.3281C24.5808 20.3281 24.5793 20.3281 24.5778 20.3281C24.5527 20.3098 24.5266 20.296 24.501 20.2792C24.4558 20.251 24.4101 20.2228 24.3649 20.1941C22.3572 19.0681 19.7745 21.7104 22.087 23.2149C22.204 23.2896 22.321 23.3653 22.4396 23.4385C33.7155 30.3583 43.0806 23.2213 37.2202 11.2251C40.5747 18.5986 36.5317 24.1668 29.105 22.2957L29.1055 22.2952Z" fill="url(#paint4_linear_6628_4299)"/>
<path d="M5.0783 18.5665C4.46363 17.249 2.52723 18.006 2.77581 19.4778C2.80996 19.5891 2.84662 19.6999 2.88227 19.8107C3.53711 21.3424 5.74369 20.5375 5.17622 18.8336C5.17472 18.8287 5.17321 18.8242 5.1717 18.8193C5.14006 18.7347 5.10843 18.6506 5.07779 18.566L5.0783 18.5665Z" fill="url(#paint5_linear_6628_4299)"/>
<path d="M3.38123 25.7393C3.38123 25.7393 3.38123 25.7393 3.38073 25.7388C3.96576 25.6631 4.5262 25.5434 5.04696 25.4133C5.3573 25.3376 5.6802 25.4959 5.864 25.7645C5.86551 25.765 5.86651 25.766 5.86802 25.7665C6.79303 27.1112 7.85262 28.3856 9.01818 29.5561C9.79003 30.3022 10.6066 31.0037 11.4578 31.6543C13.2189 32.9911 15.0157 30.8879 13.1355 29.5611C13.1355 29.5596 13.1355 29.5591 13.1355 29.5581C12.3757 28.9719 11.6396 28.3416 10.9365 27.6658C9.80409 26.5215 8.7907 25.2911 7.90988 24.0087C7.90988 24.0087 7.90937 24.0087 7.90887 24.0087C7.90586 24.0033 7.90234 23.9993 7.89933 23.9939C7.83807 23.9043 7.7773 23.8143 7.71754 23.7238C6.8332 22.5319 5.64254 22.6161 4.20179 22.9797C3.8352 23.087 3.44702 23.1929 3.05331 23.2731C2.69476 23.33 2.19358 23.2285 1.93395 22.6576C0.391262 18.6038 0.196416 14.3961 1.77577 10.9043C0.916539 12.7422 0.328491 14.5549 0.102511 16.4393C0.102511 16.4398 0.102511 16.4403 0.102511 16.4413C-0.0320727 17.5649 -0.0370981 18.7146 0.105018 19.9094C0.150717 20.5243 0.213489 21.1071 0.281283 21.6325C0.419382 22.6507 0.634821 23.5585 0.868836 24.3417C1.38608 25.8966 2.78615 25.7987 3.38173 25.7393C3.38173 25.7393 3.38173 25.7393 3.38223 25.7393H3.38123Z" fill="url(#paint6_linear_6628_4299)"/>
<path d="M7.4502 31.1001C6.61055 30.2556 5.83921 29.3591 5.13867 28.426C5.13716 28.4255 5.13616 28.425 5.13415 28.4241C4.15791 26.9839 2.38472 28.0243 3.05965 29.1592C3.12895 29.272 3.20528 29.3957 3.28864 29.5313C4.04794 30.6731 4.92122 31.715 5.87687 32.6501C6.82598 33.5915 7.88357 34.4519 9.0426 35.1999C10.5506 36.1003 10.5793 36.1171 11.4139 36.506C12.1832 36.832 14.2015 37.7893 17.0594 38.1653C17.5922 38.2321 18.1843 38.2939 18.8085 38.339C20.0212 38.4785 21.1883 38.4735 22.3282 38.3414C22.3282 38.3414 22.3287 38.3414 22.3292 38.3414C24.2425 38.1188 26.083 37.5395 27.9486 36.693C21.7638 39.4076 13.3669 36.8107 7.44969 31.1006L7.4502 31.1001Z" fill="url(#paint7_linear_6628_4299)"/>
<path d="M4.09388 14.6767C4.09388 14.6767 4.09388 14.6762 4.09438 14.6757C3.48373 10.43 4.52223 6.45974 7.64829 3.85498C4.93603 5.93334 3.14527 7.83608 2.36086 11.2378C2.04248 12.6186 1.94606 14.0306 2.03595 15.4465C2.23933 17.088 4.34798 16.0536 4.09388 14.6767V14.6767Z" fill="url(#paint8_linear_6628_4299)"/>
<path d="M19.8708 33.3247C20.3343 32.5109 20.7566 31.6604 21.1232 30.757C21.5661 29.6766 22.5785 27.7837 20.1038 26.3272C20.1038 26.3262 20.1043 26.3257 20.1048 26.3248C18.5651 25.3783 17.0907 24.2296 15.7484 22.9279C14.3598 21.5387 13.1401 20.0061 12.1528 18.4051C10.8823 16.3455 10.0391 14.2692 9.60422 12.2902C9.60422 12.2902 9.60371 12.2902 9.60321 12.2902C9.12012 10.2836 6.36366 11.2478 6.56956 13.2886C7.29068 17.5319 9.74834 21.9088 13.2284 25.4105C14.5683 26.7027 16.0346 27.8505 17.5718 28.8187C17.5718 28.8192 17.5718 28.8202 17.5723 28.8207C18.0102 29.0992 18.0212 29.1922 17.8947 29.5262C17.5587 30.34 17.1414 31.0994 16.6658 31.8657C16.6658 31.8657 16.6658 31.8662 16.6658 31.8672C16.1496 32.6722 15.5661 34.2241 17.5627 35.1255C20.852 36.4074 24.3205 36.8576 27.6133 36.1209C31.0663 35.3482 32.9977 33.5834 35.1073 30.9119C31.6041 34.9919 25.6664 35.4634 19.8697 33.3247H19.8708Z" fill="url(#paint9_linear_6628_4299)"/>
<path d="M32.4926 28.9952C32.4926 28.9952 32.4916 28.9957 32.4911 28.9962C32.4836 28.9972 32.4771 28.9992 32.4695 29.0006C32.3952 29.019 32.3209 29.0363 32.2461 29.0531C30.3985 29.5726 30.1786 32.0457 32.2792 31.4951C36.5337 29.9921 38.2395 26.4018 38.8703 21.9468C38.2898 25.7681 35.8457 28.1631 32.4931 28.9957L32.4926 28.9952Z" fill="url(#paint10_linear_6628_4299)"/>
<path d="M9.42353 7.16177C9.42353 7.16177 9.42353 7.16176 9.42353 7.16127C10.0819 3.48493 12.5772 0.75995 16.7373 0.146484C12.0519 0.790129 8.30919 2.57066 6.88853 7.1024C6.42653 8.84138 9.15285 8.66228 9.42353 7.16127V7.16177Z" fill="url(#paint11_linear_6628_4299)"/>
<path d="M26.8823 29.0483C26.8752 29.0473 26.8687 29.0458 26.8617 29.0453C24.7043 28.7702 23.4534 31.5744 25.7172 31.9979C25.7328 32.0003 25.7483 32.0023 25.7639 32.0043C28.0267 32.2155 29.2475 29.6118 27.2197 29.1091C27.1077 29.0903 26.9952 29.07 26.8828 29.0483H26.8823Z" fill="url(#paint12_linear_6628_4299)"/>
<path d="M169.582 55.988V54.2696H161.415V66.5288H163.346V61.3204H169.05V59.6729H163.346V55.988H169.582ZM173.344 55.4566C173.344 54.8188 172.866 54.3936 172.193 54.3936C171.502 54.3936 171.041 54.8188 171.041 55.4566C171.041 56.0766 171.502 56.5195 172.193 56.5195C172.866 56.5195 173.344 56.0766 173.344 55.4566ZM171.289 57.8127V66.5288H173.096V57.8127H171.289ZM177.021 66.5288V61.3381C177.021 60.0272 177.819 59.3363 179.165 59.3363V57.8127C176.649 57.8127 175.197 59.0528 175.197 61.1787V66.5288H177.021ZM189.072 62.1885C189.055 59.5489 187.124 57.6533 184.431 57.6533C181.738 57.6533 179.772 59.5489 179.772 62.1708C179.772 64.7927 181.738 66.6882 184.431 66.6882C186.575 66.6882 188.435 65.3064 188.931 63.3754H187.088C186.752 64.4207 185.689 65.2001 184.449 65.2001C182.943 65.2001 181.809 64.1903 181.579 62.7377H189.019C189.055 62.5605 189.072 62.3656 189.072 62.1885ZM184.449 59.1414C185.884 59.1414 187.017 60.0449 187.319 61.3381H181.632C181.951 60.0449 183.031 59.1414 184.449 59.1414ZM194.171 55.6514C194.366 55.6514 194.614 55.6869 194.844 55.7754V54.181C194.614 54.1279 194.348 54.1102 194.153 54.1102C192.488 54.1102 191.319 55.1554 191.319 56.6435V57.8127H190.061V59.3363H191.319V66.5288H193.126V59.3363H194.844V57.8127H193.126V56.6435C193.126 56.0412 193.569 55.6514 194.171 55.6514ZM196.537 54.2696V66.5288H198.344V54.2696H196.537ZM206.662 57.8127V62.5428C206.662 63.9423 205.794 64.8635 204.447 64.8635C203.137 64.8635 202.286 63.9423 202.286 62.5428V57.8127H200.479V62.7908C200.479 64.899 201.932 66.3162 203.898 66.3162C205.121 66.3162 206.095 65.7848 206.662 64.8635V66.4934C206.662 67.8929 205.812 68.7787 204.501 68.7787C203.296 68.7787 202.481 67.9815 202.375 66.7414L200.692 66.7237C200.869 68.8141 202.392 70.2314 204.571 70.2314C206.91 70.2314 208.487 68.6901 208.487 66.3871V57.8127H206.662Z" fill="white"/>
<path d="M111.046 57.5423C109.777 57.5423 108.703 58.0686 108.016 58.8933V54.1909H106.219V62.0166C106.219 64.6134 108.139 66.4909 110.817 66.4909C113.495 66.4909 115.415 64.6134 115.415 61.9639C115.415 59.4197 113.6 57.5423 111.046 57.5423ZM110.799 64.9292C109.178 64.9292 108.016 63.7186 108.016 62.0166C108.016 60.3321 109.178 59.1039 110.799 59.1039C112.402 59.1039 113.565 60.3321 113.565 62.0166C113.565 63.7186 112.402 64.9292 110.799 64.9292Z" fill="white"/>
<path d="M123.177 57.7002V62.385C123.177 63.7712 122.314 64.6836 120.975 64.6836C119.671 64.6836 118.825 63.7712 118.825 62.385V57.7002H117.028V62.6307C117.028 64.7187 118.473 66.1224 120.428 66.1224C121.644 66.1224 122.613 65.596 123.177 64.6836V66.2979C123.177 67.684 122.331 68.5613 121.027 68.5613C119.83 68.5613 119.019 67.7717 118.913 66.5435L117.24 66.526C117.416 68.5964 118.931 70.0001 121.098 70.0001C123.423 70.0001 124.991 68.4736 124.991 66.1926V57.7002H123.177Z" fill="white"/>
<path d="M141.738 51.6412L141.215 50.7334" stroke="#5724B1" stroke-width="1.15884" stroke-miterlimit="10" stroke-linecap="round" stroke-linejoin="round"/>
<path d="M145.141 51.6412L145.663 50.7334" stroke="#5724B1" stroke-width="1.15884" stroke-miterlimit="10" stroke-linecap="round" stroke-linejoin="round"/>
<path fill-rule="evenodd" clip-rule="evenodd" d="M141.463 55.4735C141.67 54.5726 142.479 53.9012 143.442 53.9012C144.404 53.9012 145.212 54.5717 145.421 55.4716C144.599 55.6925 143.899 56.208 143.44 56.897C142.981 56.2098 142.282 55.6954 141.463 55.4735ZM140.305 55.3531C140.577 53.8722 141.878 52.7475 143.442 52.7475C145.006 52.7475 146.307 53.8722 146.579 55.3531H154.925C155.239 55.3531 155.496 55.6031 155.504 55.9162C155.443 55.9177 155.389 55.9189 155.343 55.92C155.239 55.9223 155.118 55.9252 155.084 55.926C155.05 55.9269 155.101 55.9257 155.343 55.92C155.43 55.9181 155.504 55.9167 155.504 55.9172L155.504 55.9182L155.504 55.9208L155.504 55.9273L155.504 55.9464C155.504 55.9616 155.504 55.9821 155.503 56.0073C155.502 56.0577 155.498 56.1275 155.491 56.2138C155.475 56.3862 155.443 56.6261 155.375 56.9111C155.24 57.4807 154.96 58.2371 154.384 58.9923C153.838 59.7075 153.048 60.3945 151.916 60.9244C152.374 62.1362 152.546 63.514 152.33 65.0718C152.298 65.306 152.125 65.4969 151.895 65.5533L151.757 64.9942C151.895 65.5533 151.894 65.5534 151.894 65.5534L151.893 65.5536L151.891 65.5541L151.886 65.5553L151.87 65.5591C151.857 65.562 151.838 65.566 151.816 65.5708C151.77 65.5803 151.705 65.5928 151.624 65.6064C151.46 65.6336 151.228 65.6654 150.941 65.6862C150.368 65.7276 149.571 65.7258 148.668 65.5527C148.01 65.4266 147.298 65.2098 146.579 64.8561C146.12 66.0747 145.273 67.3697 143.725 68.252C143.547 68.3537 143.328 68.3537 143.15 68.252C141.604 67.3704 140.757 66.0768 140.298 64.8591C139.581 65.211 138.871 65.4269 138.215 65.5527C137.312 65.7258 136.515 65.7276 135.942 65.6862C135.656 65.6654 135.423 65.6336 135.26 65.6064C135.178 65.5928 135.114 65.5802 135.068 65.5708C135.045 65.566 135.027 65.562 135.014 65.559L134.998 65.5553L134.993 65.5541L134.991 65.5536L134.99 65.5534C134.99 65.5533 134.989 65.5533 135.127 64.9942L134.989 65.5533C134.759 65.4969 134.586 65.3062 134.554 65.0721C134.338 63.5155 134.508 62.1385 134.966 60.9273C133.83 60.397 133.038 59.7088 132.492 58.9923C131.916 58.2371 131.636 57.4807 131.5 56.9111C131.432 56.6261 131.4 56.3862 131.385 56.2138C131.377 56.1275 131.374 56.0577 131.372 56.0073C131.371 55.9821 131.371 55.9616 131.371 55.9464L131.371 55.9273L131.371 55.9208L131.371 55.9182L131.371 55.9172C131.371 55.9167 131.371 55.9162 131.95 55.93L131.371 55.9162C131.379 55.6031 131.636 55.3531 131.95 55.3531H140.305ZM135.453 59.8806C134.472 59.4208 133.833 58.8434 133.414 58.2943C132.955 57.6928 132.734 57.0925 132.627 56.6446C132.616 56.5968 132.606 56.5508 132.597 56.5068H138.686C137.637 57.2184 136.695 58.0654 135.968 59.0744C135.781 59.3331 135.609 59.6018 135.453 59.8806ZM136.55 60.2947C136.661 60.1067 136.781 59.9244 136.909 59.7474C137.869 58.4152 139.294 57.3622 140.914 56.5348C142.016 56.7078 142.861 57.6611 142.861 58.8118C142.861 59.1304 143.121 59.3887 143.441 59.3887C143.76 59.3887 144.02 59.1304 144.02 58.8118C144.02 57.658 144.867 56.7043 145.968 56.5339C147.588 57.3613 149.014 58.4146 149.974 59.7473C150.101 59.9237 150.221 60.1055 150.332 60.2929C149.336 60.5912 148.086 60.7797 146.515 60.7797C146.351 60.7797 146.195 60.8488 146.085 60.9699C145.976 61.0909 145.922 61.2524 145.939 61.4145L145.939 61.4153L145.939 61.4202L145.942 61.4491C145.944 61.4761 145.947 61.5183 145.949 61.574C145.954 61.6854 145.957 61.8504 145.951 62.0561C145.944 62.3276 145.919 62.6668 145.86 63.0453C145.181 62.5123 144.523 61.7975 143.936 60.8419C143.831 60.6706 143.644 60.5661 143.442 60.566C143.24 60.566 143.053 60.6704 142.948 60.8417C142.359 61.8005 141.697 62.5169 141.016 63.0506C140.957 62.67 140.932 62.3288 140.924 62.0561C140.918 61.8504 140.921 61.6854 140.926 61.574C140.929 61.5183 140.932 61.4761 140.934 61.4491L140.936 61.4202L140.936 61.4153L140.936 61.4143C140.953 61.2522 140.9 61.0908 140.79 60.9699C140.68 60.8488 140.524 60.7797 140.36 60.7797C138.792 60.7797 137.544 60.592 136.55 60.2947ZM136.045 61.3463C135.698 62.2711 135.545 63.3147 135.653 64.4982C135.759 64.5118 135.884 64.5252 136.027 64.5355C136.522 64.5713 137.214 64.5697 137.996 64.4198C138.611 64.3019 139.285 64.0922 139.966 63.7325C139.827 63.092 139.778 62.517 139.766 62.0896C139.764 62.0319 139.763 61.9768 139.763 61.9245C138.283 61.8797 137.058 61.6685 136.045 61.3463ZM141.314 64.2649C141.658 65.2722 142.29 66.3217 143.438 67.0747C144.587 66.3207 145.219 65.2693 145.563 64.2607C144.824 63.7525 144.1 63.0755 143.442 62.1792C142.781 63.078 142.055 63.7562 141.314 64.2649ZM146.91 63.729C147.593 64.0909 148.27 64.3015 148.887 64.4197C149.669 64.5697 150.362 64.5713 150.857 64.5355C150.999 64.5252 151.124 64.5118 151.23 64.4982C151.338 63.3138 151.185 62.2695 150.837 61.3442C149.822 61.6676 148.595 61.8796 147.113 61.9245C147.112 61.9768 147.111 62.0319 147.109 62.0896C147.097 62.5162 147.049 63.0899 146.91 63.729ZM151.428 59.8779C152.406 59.4185 153.043 58.8423 153.461 58.2943C153.92 57.6928 154.141 57.0925 154.248 56.6446C154.26 56.5968 154.27 56.5508 154.279 56.5068H148.198C149.247 57.2184 150.188 58.0654 150.915 59.0745C151.101 59.3323 151.272 59.6001 151.428 59.8779Z" fill="url(#paint13_radial_6628_4299)"/>
<path d="M67.9958 0C59.2424 0 53.2617 5.73999 53.2617 14.2417V37.9597H59.188V28.2126H76.8037V37.9597H82.73V14.2417C82.73 5.73999 76.7493 0 67.9958 0ZM59.188 22.9599V14.5666C59.188 9.04318 62.6676 5.41508 67.9958 5.41508C73.3241 5.41508 76.8037 9.04318 76.8037 14.5666V22.9599H59.188Z" fill="white"/>
<path d="M107.078 0.487358H101.152V37.9597H107.078V0.487358Z" fill="white"/>
<path d="M137.954 10.8302C129.689 10.8302 123.763 16.6243 123.763 24.6386C123.763 32.6529 129.255 38.4471 136.758 38.4471C140.835 38.4471 144.424 36.8226 146.598 34.2775V37.9597H152.144V24.6386C152.144 16.6243 146.218 10.8302 137.954 10.8302ZM138.008 33.6277C133.06 33.6277 129.472 29.8912 129.472 24.6386C129.472 19.4401 133.06 15.6496 138.008 15.6496C143.01 15.6496 146.598 19.4401 146.598 24.6386C146.598 29.8912 143.01 33.6277 138.008 33.6277Z" fill="white"/>
<path d="M206.219 22.7975H200.13C198.771 28.8082 193.714 33.032 187.027 33.032C179.198 33.032 173.543 27.1837 173.543 19.1694C173.543 11.1551 179.198 5.41508 187.027 5.41508C193.769 5.41508 198.771 9.58469 200.13 15.5413H206.219C204.751 6.33564 197.139 0 187.027 0C175.718 0 167.508 8.06847 167.508 19.1694C167.508 30.3786 175.718 38.4471 187.027 38.4471C197.139 38.4471 204.806 32.0573 206.219 22.7975Z" fill="white"/>
<defs>
<linearGradient id="paint0_linear_6628_4299" x1="30.1148" y1="6.25244" x2="30.1148" y2="11.2966" gradientUnits="userSpaceOnUse">
<stop stop-color="#6B41B5"/>
<stop offset="1" stop-color="#3EE1DE"/>
</linearGradient>
<linearGradient id="paint1_linear_6628_4299" x1="24.6646" y1="0" x2="24.6646" y2="19.0212" gradientUnits="userSpaceOnUse">
<stop stop-color="#6B41B5"/>
<stop offset="1" stop-color="#3EE1DE"/>
</linearGradient>
<linearGradient id="paint2_linear_6628_4299" x1="18.6557" y1="15.5879" x2="18.6557" y2="19.762" gradientUnits="userSpaceOnUse">
<stop stop-color="#6B41B5"/>
<stop offset="1" stop-color="#3EE1DE"/>
</linearGradient>
<linearGradient id="paint3_linear_6628_4299" x1="28.5233" y1="1.7124" x2="28.5233" y2="13.4661" gradientUnits="userSpaceOnUse">
<stop stop-color="#6B41B5"/>
<stop offset="1" stop-color="#3EE1DE"/>
</linearGradient>
<linearGradient id="paint4_linear_6628_4299" x1="30.0986" y1="11.2251" x2="30.0986" y2="26.1504" gradientUnits="userSpaceOnUse">
<stop stop-color="#6B41B5"/>
<stop offset="1" stop-color="#3EE1DE"/>
</linearGradient>
<linearGradient id="paint5_linear_6628_4299" x1="4.01124" y1="17.8867" x2="4.01124" y2="20.6241" gradientUnits="userSpaceOnUse">
<stop stop-color="#6B41B5"/>
<stop offset="1" stop-color="#3EE1DE"/>
</linearGradient>
<linearGradient id="paint6_linear_6628_4299" x1="6.96758" y1="10.9043" x2="6.96758" y2="32.0822" gradientUnits="userSpaceOnUse">
<stop stop-color="#6B41B5"/>
<stop offset="1" stop-color="#3EE1DE"/>
</linearGradient>
<linearGradient id="paint7_linear_6628_4299" x1="15.4294" y1="27.7212" x2="15.4294" y2="38.4421" gradientUnits="userSpaceOnUse">
<stop stop-color="#6B41B5"/>
<stop offset="1" stop-color="#3EE1DE"/>
</linearGradient>
<linearGradient id="paint8_linear_6628_4299" x1="4.8261" y1="3.85498" x2="4.8261" y2="16.2879" gradientUnits="userSpaceOnUse">
<stop stop-color="#6B41B5"/>
<stop offset="1" stop-color="#3EE1DE"/>
</linearGradient>
<linearGradient id="paint9_linear_6628_4299" x1="20.833" y1="11.1855" x2="20.833" y2="36.4753" gradientUnits="userSpaceOnUse">
<stop stop-color="#6B41B5"/>
<stop offset="1" stop-color="#3EE1DE"/>
</linearGradient>
<linearGradient id="paint10_linear_6628_4299" x1="34.8258" y1="21.9468" x2="34.8258" y2="31.5745" gradientUnits="userSpaceOnUse">
<stop stop-color="#6B41B5"/>
<stop offset="1" stop-color="#3EE1DE"/>
</linearGradient>
<linearGradient id="paint11_linear_6628_4299" x1="11.7866" y1="0.146484" x2="11.7866" y2="8.34725" gradientUnits="userSpaceOnUse">
<stop stop-color="#6B41B5"/>
<stop offset="1" stop-color="#3EE1DE"/>
</linearGradient>
<linearGradient id="paint12_linear_6628_4299" x1="26.3827" y1="29.0264" x2="26.3827" y2="32.0165" gradientUnits="userSpaceOnUse">
<stop stop-color="#6B41B5"/>
<stop offset="1" stop-color="#3EE1DE"/>
</linearGradient>
<radialGradient id="paint13_radial_6628_4299" cx="0" cy="0" r="1" gradientUnits="userSpaceOnUse" gradientTransform="translate(143.003 69.3378) rotate(-90) scale(19.2773 15.5856)">
<stop stop-color="#33FDD8"/>
<stop offset="0.614614" stop-color="#7A4AFF"/>
<stop offset="1" stop-color="#45108A"/>
</radialGradient>
</defs>
</svg>
